<svg width="38" height="38" viewBox="0 0 38 38" fill="none" xmlns="http://www.w3.org/2000/svg">
<g clip-path="url(#clip0_9_2)">
<rect width="38" height="38" fill="#F3D2D2"/>
<path d="M18.9062 34C19.8854 34.1875 20.8646 34.2812 21.8438 34.2812C22.8438 34.2812 23.8021 34.2083 24.7188 34.0625C25.6562 33.8958 26.5417 33.6667 27.375 33.375C29.1458 32.75 30.5729 31.9583 31.6562 31C32.4271 30.3333 32.9896 30 33.3438 30C34.1354 30 34.5312 30.3542 34.5312 31.0625C34.5312 31.7708 33.8854 32.6146 32.5938 33.5938C29.5938 35.5938 25.9896 36.5938 21.7812 36.5938C16.3021 36.5938 11.875 34.9479 8.5 31.6562C5.1875 28.4062 3.53125 24.1875 3.53125 19C3.53125 14.0833 5.29167 10.0208 8.8125 6.8125C12.3125 3.64583 16.7083 2.0625 22 2.0625C25.0208 2.0625 27.9271 2.6875 30.7188 3.9375C32.8438 4.85417 33.9062 5.80208 33.9062 6.78125C33.9062 7.19792 33.7812 7.52083 33.5312 7.75C33.3021 7.95833 33.0417 8.0625 32.75 8.0625C32.3125 8.0625 31.75 7.82292 31.0625 7.34375C29.7083 6.05208 27.6979 5.14583 25.0312 4.625C24.0729 4.4375 23.0208 4.34375 21.875 4.34375C20.7292 4.34375 19.7396 4.42708 18.9062 4.59375V34Z" fill="black"/>
</g>
<defs>
<clipPath id="clip0_9_2">
<rect width="38" height="38" fill="white"/>
</clipPath>
</defs>
</svg>
