<svg width="406" height="587" viewBox="0 0 406 587" fill="none" xmlns="http://www.w3.org/2000/svg">
<rect width="406" height="587" fill="black"/>
<path d="M22.1953 94.3516C21.8984 94.3203 21.6719 94.1875 21.5156 93.9531C21.3594 93.7188 21.2969 93.4609 21.3281 93.1797C21.4062 92.6953 21.5547 92.25 21.7734 91.8438C21.9922 91.4375 22.1484 91.1328 22.2422 90.9297C22.3516 90.7266 22.4609 90.5 22.5703 90.25L23.4609 88.1875L33.0938 59.3359L43.4531 79.3516L53.5078 59.3359L65.5312 94H52.9453L47.1328 76.0938L38.1328 94.8438L28.6641 77.9688L25.3828 88.2109C24.8672 89.3516 24.5 90.3203 24.2812 91.1172C24.0625 91.9141 23.8828 92.5312 23.7422 92.9688C23.4297 93.9531 22.9141 94.4141 22.1953 94.3516ZM73.7109 89.7812C72.1641 88.2656 70.9297 86.4375 70.0078 84.2969C69.1016 82.1406 68.6484 79.7969 68.6484 77.2656C68.6484 74.7188 69.0781 72.4375 69.9375 70.4219C70.8125 68.3906 72.0156 66.6328 73.5469 65.1484C76.8281 61.9922 80.9453 60.4141 85.8984 60.4141C90.8203 60.4141 94.8516 61.9688 97.9922 65.0781C101.18 68.2344 102.773 72.3281 102.773 77.3594C102.773 82.375 101.141 86.5 97.875 89.7344C95.8281 91.7344 93.3125 93.1172 90.3281 93.8828C88.8438 94.2578 87.1172 94.4453 85.1484 94.4453C83.1953 94.4453 81.1875 94.0469 79.125 93.25C77.0625 92.4375 75.2578 91.2812 73.7109 89.7812ZM85.875 62.125C85.0156 62.125 84.2109 62.1875 83.4609 62.3125V92.5469C84.1797 92.6719 84.9844 92.7344 85.875 92.7344C90.0469 92.7344 93.5625 91.3438 96.4219 88.5625C99.4062 85.6719 100.898 81.9375 100.898 77.3594C100.898 73 99.5 69.375 96.7031 66.4844C93.875 63.5781 90.2656 62.125 85.875 62.125ZM133.125 60.5781C133.766 60.5781 134.086 60.9141 134.086 61.5859C134.086 61.9297 133.977 62.3281 133.758 62.7812C133.555 63.2188 133.391 63.5781 133.266 63.8594L120.539 95.2891L105.117 60.8359H117.914L125.367 78.3672L130.594 65.2891C131.156 63.8828 131.523 62.8672 131.695 62.2422C131.867 61.6172 132.055 61.1875 132.258 60.9531C132.461 60.7031 132.75 60.5781 133.125 60.5781ZM138.609 60.8359H150.562V94H138.609V60.8359ZM179.016 91.9844C179.812 91.9844 180.211 92.2969 180.211 92.9219C180.211 93.2031 180.039 93.4531 179.695 93.6719C179.352 93.8906 178.758 94 177.914 94H158.062V60.8359C164.219 60.8359 170.375 60.8359 176.531 60.8359L178.453 60.7656C179.625 60.7656 180.211 61.1094 180.211 61.7969C180.211 62.0625 180.109 62.3125 179.906 62.5469C179.719 62.7656 179.5 62.875 179.25 62.875C178.844 62.875 178.414 62.8281 177.961 62.7344C177.289 62.5938 176.367 62.5234 175.195 62.5234H170.016V69.6719H174.281C174.281 69.6719 175.242 69.6328 177.164 69.5547C177.508 69.5547 177.797 69.6406 178.031 69.8125C178.281 69.9688 178.406 70.1953 178.406 70.4922C178.406 71.1484 177.969 71.4766 177.094 71.4766L176.086 71.4531C175.57 71.4062 175.141 71.3828 174.797 71.3828H170.016V92.2891H175.195C176.352 92.2891 177.172 92.2422 177.656 92.1484C178.234 92.0391 178.688 91.9844 179.016 91.9844ZM212.695 84.2734L214.781 84.3672C217.812 84.3672 220.312 83.3672 222.281 81.3672C224.281 79.3516 225.328 76.7422 225.422 73.5391C225.594 68.6016 223.219 65.2656 218.297 63.5312C216.453 62.875 214.055 62.5469 211.102 62.5469H209.133V94H197.18V60.8359H206.156C211 60.8359 213.922 60.9062 214.922 61.0469C215.922 61.1875 216.961 61.3672 218.039 61.5859C219.133 61.8047 220.305 62.2812 221.555 63.0156C222.82 63.75 223.891 64.625 224.766 65.6406C226.531 67.7031 227.383 70.125 227.32 72.9062C227.227 76.4531 226.188 79.4062 224.203 81.7656C222.188 84.1406 219.406 85.6094 215.859 86.1719C214.828 86.3125 214.016 86.3828 213.422 86.3828C212.016 86.3828 211.312 86 211.312 85.2344C211.312 84.9531 211.438 84.7266 211.688 84.5547C211.938 84.3672 212.273 84.2734 212.695 84.2734ZM236.227 89.7812C234.68 88.2656 233.445 86.4375 232.523 84.2969C231.617 82.1406 231.164 79.7969 231.164 77.2656C231.164 74.7188 231.594 72.4375 232.453 70.4219C233.328 68.3906 234.531 66.6328 236.062 65.1484C239.344 61.9922 243.461 60.4141 248.414 60.4141C253.336 60.4141 257.367 61.9688 260.508 65.0781C263.695 68.2344 265.289 72.3281 265.289 77.3594C265.289 82.375 263.656 86.5 260.391 89.7344C258.344 91.7344 255.828 93.1172 252.844 93.8828C251.359 94.2578 249.633 94.4453 247.664 94.4453C245.711 94.4453 243.703 94.0469 241.641 93.25C239.578 92.4375 237.773 91.2812 236.227 89.7812ZM248.391 62.125C247.531 62.125 246.727 62.1875 245.977 62.3125V92.5469C246.695 92.6719 247.5 92.7344 248.391 92.7344C252.562 92.7344 256.078 91.3438 258.938 88.5625C261.922 85.6719 263.414 81.9375 263.414 77.3594C263.414 73 262.016 69.375 259.219 66.4844C256.391 63.5781 252.781 62.125 248.391 62.125ZM271.992 92.3125C271.445 92 270.969 91.6719 270.562 91.3281C270.172 90.9844 269.977 90.6172 269.977 90.2266C269.977 89.4766 270.297 89.1016 270.938 89.1016C271.359 89.1016 271.828 89.3359 272.344 89.8047C272.859 90.2734 273.438 90.6875 274.078 91.0469C274.719 91.3906 275.414 91.6875 276.164 91.9375C277.711 92.4531 279.141 92.7109 280.453 92.7109C281.766 92.7109 282.773 92.625 283.477 92.4531C284.195 92.2812 284.797 92.0469 285.281 91.75C286.312 91.1094 286.828 90.2891 286.828 89.2891C286.828 88.3672 286.383 87.4375 285.492 86.5C284.742 85.7031 283.68 84.75 282.305 83.6406L278.297 80.5C274.281 77.4062 271.914 74.5781 271.195 72.0156C270.945 71.125 270.82 70.1328 270.82 69.0391C270.82 67.9453 271.062 66.8672 271.547 65.8047C272.047 64.7422 272.781 63.8125 273.75 63.0156C275.828 61.2812 278.656 60.4141 282.234 60.4141C284.062 60.4141 285.703 60.6875 287.156 61.2344C288.609 61.7656 289.602 62.2422 290.133 62.6641C290.664 63.0859 290.93 63.4688 290.93 63.8125C290.93 64.5312 290.633 64.8906 290.039 64.8906C289.695 64.8906 289.328 64.7188 288.938 64.375C288.547 64.0312 288.109 63.7344 287.625 63.4844C287.156 63.2188 286.617 62.9844 286.008 62.7812C284.695 62.3438 283.406 62.125 282.141 62.125C279.812 62.125 278.648 62.8906 278.648 64.4219C278.648 65.0625 278.859 65.6562 279.281 66.2031C280.031 67.1562 281.492 68.5234 283.664 70.3047C285.852 72.0703 287.602 73.6172 288.914 74.9453C290.242 76.2734 291.25 77.4688 291.938 78.5312C293.031 80.2031 293.578 81.9453 293.578 83.7578C293.578 85.5547 293.258 87.0859 292.617 88.3516C291.992 89.6016 291.109 90.6797 289.969 91.5859C287.562 93.4922 284.578 94.4453 281.016 94.4453C277.453 94.4453 274.445 93.7344 271.992 92.3125ZM323.953 61.4453C323.953 62.1641 323.195 62.5234 321.68 62.5234H316.242V94H304.242V62.5234H300.727C299.523 62.5234 298.695 62.5781 298.242 62.6875C297.648 62.8125 297.219 62.875 296.953 62.875C296.156 62.875 295.758 62.5625 295.758 61.9375C295.758 61.2031 296.531 60.8359 298.078 60.8359H318.984C320.062 60.8359 320.859 60.7891 321.375 60.6953C322 60.5859 322.469 60.5312 322.781 60.5312C323.562 60.5312 323.953 60.8359 323.953 61.4453ZM349.5 91.9844C350.297 91.9844 350.695 92.2969 350.695 92.9219C350.695 93.2031 350.523 93.4531 350.18 93.6719C349.836 93.8906 349.242 94 348.398 94H328.547V60.8359C334.703 60.8359 340.859 60.8359 347.016 60.8359L348.938 60.7656C350.109 60.7656 350.695 61.1094 350.695 61.7969C350.695 62.0625 350.594 62.3125 350.391 62.5469C350.203 62.7656 349.984 62.875 349.734 62.875C349.328 62.875 348.898 62.8281 348.445 62.7344C347.773 62.5938 346.852 62.5234 345.68 62.5234H340.5V69.6719H344.766C344.766 69.6719 345.727 69.6328 347.648 69.5547C347.992 69.5547 348.281 69.6406 348.516 69.8125C348.766 69.9688 348.891 70.1953 348.891 70.4922C348.891 71.1484 348.453 71.4766 347.578 71.4766L346.57 71.4531C346.055 71.4062 345.625 71.3828 345.281 71.3828H340.5V92.2891H345.68C346.836 92.2891 347.656 92.2422 348.141 92.1484C348.719 92.0391 349.172 91.9844 349.5 91.9844ZM372.773 82.6328L374.695 82.7734C377.445 82.7734 379.781 81.8125 381.703 79.8906C383.625 77.9688 384.586 75.5781 384.586 72.7188C384.586 68.9688 382.938 66.1875 379.641 64.375C377.828 63.375 375.891 62.7969 373.828 62.6406C372.953 62.5625 372.141 62.5234 371.391 62.5234H369.797C369.469 62.5234 369.18 62.5312 368.93 62.5469V94H356.977V60.8359C360.633 60.8359 363.594 60.8359 365.859 60.8359C368.125 60.8359 369.602 60.8438 370.289 60.8594C370.977 60.875 371.586 60.8984 372.117 60.9297C372.664 60.9453 373.172 60.9688 373.641 61C374.328 61.0625 375.297 61.2109 376.547 61.4453C377.812 61.6797 379.062 62.125 380.297 62.7812C381.531 63.4375 382.594 64.25 383.484 65.2188C385.406 67.2812 386.367 69.7344 386.367 72.5781C386.367 75.3906 385.477 77.875 383.695 80.0312C381.867 82.2344 379.43 83.6562 376.383 84.2969C377.836 88.7969 379.688 91.4844 381.938 92.3594C382.625 92.625 383.312 92.7578 384 92.7578L385.852 92.3125C386.43 92.3125 386.719 92.6094 386.719 93.2031C386.719 94.0312 385.75 94.4453 383.812 94.4453C382.406 94.4453 381.117 94.0547 379.945 93.2734C378.117 92.1797 376.562 90.0547 375.281 86.8984L374.602 85.2344C374.492 84.9688 374.391 84.8047 374.297 84.7422C374.219 84.6797 374.07 84.6484 373.852 84.6484C373.648 84.6484 373.469 84.6641 373.312 84.6953L372.75 84.7188C372.125 84.7188 371.695 84.6016 371.461 84.3672C371.242 84.1328 371.133 83.8906 371.133 83.6406C371.133 82.9688 371.68 82.6328 372.773 82.6328Z" fill="#F3D2D2"/>
<circle cx="202.5" cy="266.5" r="83.5" fill="#D8FFD8"/>
<path d="M157.008 30.67V45H156.038C155.885 45 155.755 44.9733 155.648 44.92C155.548 44.8667 155.448 44.7767 155.348 44.65L147.058 33.85C147.072 34.0167 147.082 34.18 147.088 34.34C147.095 34.5 147.098 34.65 147.098 34.79V45H145.398V30.67H146.398C146.485 30.67 146.558 30.6767 146.618 30.69C146.678 30.6967 146.732 30.7133 146.778 30.74C146.825 30.76 146.872 30.7933 146.918 30.84C146.965 30.88 147.015 30.9333 147.068 31L155.358 41.79C155.345 41.6167 155.332 41.45 155.318 41.29C155.312 41.1233 155.308 40.9667 155.308 40.82V30.67H157.008ZM162.402 38.1C162.955 38.1 163.442 38.0267 163.862 37.88C164.288 37.7333 164.645 37.53 164.932 37.27C165.225 37.0033 165.445 36.6867 165.592 36.32C165.738 35.9533 165.812 35.55 165.812 35.11C165.812 34.1967 165.528 33.4833 164.962 32.97C164.402 32.4567 163.548 32.2 162.402 32.2H160.102V38.1H162.402ZM162.402 30.67C163.308 30.67 164.095 30.7767 164.762 30.99C165.435 31.1967 165.992 31.4933 166.432 31.88C166.872 32.2667 167.198 32.7333 167.412 33.28C167.632 33.8267 167.742 34.4367 167.742 35.11C167.742 35.7767 167.625 36.3867 167.392 36.94C167.158 37.4933 166.815 37.97 166.362 38.37C165.915 38.77 165.358 39.0833 164.692 39.31C164.032 39.53 163.268 39.64 162.402 39.64H160.102V45H158.172V30.67H162.402ZM182.594 30.67V45H180.894V34.47C180.894 34.33 180.897 34.18 180.904 34.02C180.917 33.86 180.93 33.6967 180.944 33.53L176.024 42.49C175.87 42.79 175.637 42.94 175.324 42.94H175.044C174.73 42.94 174.497 42.79 174.344 42.49L169.324 33.49C169.364 33.8433 169.384 34.17 169.384 34.47V45H167.684V30.67H169.114C169.287 30.67 169.42 30.6867 169.514 30.72C169.607 30.7533 169.697 30.8467 169.784 31L174.734 39.82C174.814 39.98 174.89 40.1467 174.964 40.32C175.044 40.4933 175.117 40.67 175.184 40.85C175.25 40.67 175.32 40.4933 175.394 40.32C175.467 40.14 175.547 39.97 175.634 39.81L180.494 31C180.574 30.8467 180.66 30.7533 180.754 30.72C180.854 30.6867 180.99 30.67 181.164 30.67H182.594ZM190.605 38.1C191.158 38.1 191.645 38.0267 192.065 37.88C192.492 37.7333 192.848 37.53 193.135 37.27C193.428 37.0033 193.648 36.6867 193.795 36.32C193.942 35.9533 194.015 35.55 194.015 35.11C194.015 34.1967 193.732 33.4833 193.165 32.97C192.605 32.4567 191.752 32.2 190.605 32.2H188.305V38.1H190.605ZM190.605 30.67C191.512 30.67 192.298 30.7767 192.965 30.99C193.638 31.1967 194.195 31.4933 194.635 31.88C195.075 32.2667 195.402 32.7333 195.615 33.28C195.835 33.8267 195.945 34.4367 195.945 35.11C195.945 35.7767 195.828 36.3867 195.595 36.94C195.362 37.4933 195.018 37.97 194.565 38.37C194.118 38.77 193.562 39.0833 192.895 39.31C192.235 39.53 191.472 39.64 190.605 39.64H188.305V45H186.375V30.67H190.605ZM199.857 37.61C200.417 37.61 200.91 37.5433 201.337 37.41C201.77 37.27 202.13 37.0767 202.417 36.83C202.71 36.5767 202.93 36.2767 203.077 35.93C203.223 35.5833 203.297 35.2 203.297 34.78C203.297 33.9267 203.017 33.2833 202.457 32.85C201.897 32.4167 201.057 32.2 199.937 32.2H197.817V37.61H199.857ZM206.477 45H204.757C204.403 45 204.143 44.8633 203.977 44.59L200.257 39.47C200.143 39.31 200.02 39.1967 199.887 39.13C199.76 39.0567 199.56 39.02 199.287 39.02H197.817V45H195.887V30.67H199.937C200.843 30.67 201.627 30.7633 202.287 30.95C202.947 31.13 203.49 31.3933 203.917 31.74C204.35 32.0867 204.67 32.5067 204.877 33C205.083 33.4867 205.187 34.0333 205.187 34.64C205.187 35.1467 205.107 35.62 204.947 36.06C204.787 36.5 204.553 36.8967 204.247 37.25C203.947 37.5967 203.577 37.8933 203.137 38.14C202.703 38.3867 202.21 38.5733 201.657 38.7C201.903 38.84 202.117 39.0433 202.297 39.31L206.477 45ZM214.766 43.42L214.756 45H205.926V30.67H214.756V32.25H207.866V37.01H213.446V38.53H207.866V43.42H214.766ZM222.299 32.91C222.239 33.01 222.172 33.0867 222.099 33.14C222.032 33.1867 221.949 33.21 221.849 33.21C221.735 33.21 221.602 33.1533 221.449 33.04C221.295 32.9267 221.102 32.8033 220.869 32.67C220.642 32.53 220.365 32.4033 220.039 32.29C219.719 32.1767 219.329 32.12 218.869 32.12C218.435 32.12 218.052 32.18 217.719 32.3C217.392 32.4133 217.115 32.57 216.889 32.77C216.669 32.97 216.502 33.2067 216.389 33.48C216.275 33.7467 216.219 34.0367 216.219 34.35C216.219 34.75 216.315 35.0833 216.509 35.35C216.709 35.61 216.969 35.8333 217.289 36.02C217.615 36.2067 217.982 36.37 218.389 36.51C218.802 36.6433 219.222 36.7833 219.649 36.93C220.082 37.0767 220.502 37.2433 220.909 37.43C221.322 37.61 221.689 37.84 222.009 38.12C222.335 38.4 222.595 38.7433 222.789 39.15C222.989 39.5567 223.089 40.0567 223.089 40.65C223.089 41.2767 222.982 41.8667 222.769 42.42C222.555 42.9667 222.242 43.4433 221.829 43.85C221.422 44.2567 220.919 44.5767 220.319 44.81C219.725 45.0433 219.049 45.16 218.289 45.16C217.355 45.16 216.509 44.9933 215.749 44.66C214.989 44.32 214.339 43.8633 213.799 43.29L214.359 42.37C214.412 42.2967 214.475 42.2367 214.549 42.19C214.629 42.1367 214.715 42.11 214.809 42.11C214.895 42.11 214.992 42.1467 215.099 42.22C215.212 42.2867 215.339 42.3733 215.479 42.48C215.619 42.5867 215.779 42.7033 215.959 42.83C216.139 42.9567 216.342 43.0733 216.569 43.18C216.802 43.2867 217.065 43.3767 217.359 43.45C217.652 43.5167 217.982 43.55 218.349 43.55C218.809 43.55 219.219 43.4867 219.579 43.36C219.939 43.2333 220.242 43.0567 220.489 42.83C220.742 42.5967 220.935 42.32 221.069 42C221.202 41.68 221.269 41.3233 221.269 40.93C221.269 40.4967 221.169 40.1433 220.969 39.87C220.775 39.59 220.519 39.3567 220.199 39.17C219.879 38.9833 219.512 38.8267 219.099 38.7C218.685 38.5667 218.265 38.4333 217.839 38.3C217.412 38.16 216.992 38 216.579 37.82C216.165 37.64 215.799 37.4067 215.479 37.12C215.159 36.8333 214.899 36.4767 214.699 36.05C214.505 35.6167 214.409 35.0833 214.409 34.45C214.409 33.9433 214.505 33.4533 214.699 32.98C214.899 32.5067 215.185 32.0867 215.559 31.72C215.939 31.3533 216.402 31.06 216.949 30.84C217.502 30.62 218.135 30.51 218.849 30.51C219.649 30.51 220.375 30.6367 221.029 30.89C221.689 31.1433 222.269 31.51 222.769 31.99L222.299 32.91ZM232.168 43.42L232.158 45H223.328V30.67H232.158V32.25H225.268V37.01H230.848V38.53H225.268V43.42H232.168ZM243.981 30.67V45H243.011C242.858 45 242.728 44.9733 242.621 44.92C242.521 44.8667 242.421 44.7767 242.321 44.65L234.031 33.85C234.044 34.0167 234.054 34.18 234.061 34.34C234.068 34.5 234.071 34.65 234.071 34.79V45H232.371V30.67H233.371C233.458 30.67 233.531 30.6767 233.591 30.69C233.651 30.6967 233.704 30.7133 233.751 30.74C233.798 30.76 233.844 30.7933 233.891 30.84C233.938 30.88 233.988 30.9333 234.041 31L242.331 41.79C242.318 41.6167 242.304 41.45 242.291 41.29C242.284 41.1233 242.281 40.9667 242.281 40.82V30.67H243.981ZM254.834 32.3H250.194V45H248.264V32.3H243.614V30.67H254.834V32.3ZM261.732 32.91C261.672 33.01 261.606 33.0867 261.532 33.14C261.466 33.1867 261.382 33.21 261.282 33.21C261.169 33.21 261.036 33.1533 260.882 33.04C260.729 32.9267 260.536 32.8033 260.302 32.67C260.076 32.53 259.799 32.4033 259.472 32.29C259.152 32.1767 258.762 32.12 258.302 32.12C257.869 32.12 257.486 32.18 257.152 32.3C256.826 32.4133 256.549 32.57 256.322 32.77C256.102 32.97 255.936 33.2067 255.822 33.48C255.709 33.7467 255.652 34.0367 255.652 34.35C255.652 34.75 255.749 35.0833 255.942 35.35C256.142 35.61 256.402 35.8333 256.722 36.02C257.049 36.2067 257.416 36.37 257.822 36.51C258.236 36.6433 258.656 36.7833 259.082 36.93C259.516 37.0767 259.936 37.2433 260.342 37.43C260.756 37.61 261.122 37.84 261.442 38.12C261.769 38.4 262.029 38.7433 262.222 39.15C262.422 39.5567 262.522 40.0567 262.522 40.65C262.522 41.2767 262.416 41.8667 262.202 42.42C261.989 42.9667 261.676 43.4433 261.262 43.85C260.856 44.2567 260.352 44.5767 259.752 44.81C259.159 45.0433 258.482 45.16 257.722 45.16C256.789 45.16 255.942 44.9933 255.182 44.66C254.422 44.32 253.772 43.8633 253.232 43.29L253.792 42.37C253.846 42.2967 253.909 42.2367 253.982 42.19C254.062 42.1367 254.149 42.11 254.242 42.11C254.329 42.11 254.426 42.1467 254.532 42.22C254.646 42.2867 254.772 42.3733 254.912 42.48C255.052 42.5867 255.212 42.7033 255.392 42.83C255.572 42.9567 255.776 43.0733 256.002 43.18C256.236 43.2867 256.499 43.3767 256.792 43.45C257.086 43.5167 257.416 43.55 257.782 43.55C258.242 43.55 258.652 43.4867 259.012 43.36C259.372 43.2333 259.676 43.0567 259.922 42.83C260.176 42.5967 260.369 42.32 260.502 42C260.636 41.68 260.702 41.3233 260.702 40.93C260.702 40.4967 260.602 40.1433 260.402 39.87C260.209 39.59 259.952 39.3567 259.632 39.17C259.312 38.9833 258.946 38.8267 258.532 38.7C258.119 38.5667 257.699 38.4333 257.272 38.3C256.846 38.16 256.426 38 256.012 37.82C255.599 37.64 255.232 37.4067 254.912 37.12C254.592 36.8333 254.332 36.4767 254.132 36.05C253.939 35.6167 253.842 35.0833 253.842 34.45C253.842 33.9433 253.939 33.4533 254.132 32.98C254.332 32.5067 254.619 32.0867 254.992 31.72C255.372 31.3533 255.836 31.06 256.382 30.84C256.936 30.62 257.569 30.51 258.282 30.51C259.082 30.51 259.809 30.6367 260.462 30.89C261.122 31.1433 261.702 31.51 262.202 31.99L261.732 32.91Z" fill="#F3D2D2"/>
<path d="M95.952 537.044V539H86.196V521.804H88.512V537.044H95.952ZM110.615 530.408C110.615 531.696 110.411 532.88 110.003 533.96C109.595 535.032 109.019 535.956 108.275 536.732C107.531 537.508 106.635 538.112 105.587 538.544C104.547 538.968 103.395 539.18 102.131 539.18C100.867 539.18 99.7153 538.968 98.6753 538.544C97.6353 538.112 96.7433 537.508 95.9993 536.732C95.2553 535.956 94.6793 535.032 94.2713 533.96C93.8633 532.88 93.6593 531.696 93.6593 530.408C93.6593 529.12 93.8633 527.94 94.2713 526.868C94.6793 525.788 95.2553 524.86 95.9993 524.084C96.7433 523.3 97.6353 522.692 98.6753 522.26C99.7153 521.828 100.867 521.612 102.131 521.612C103.395 521.612 104.547 521.828 105.587 522.26C106.635 522.692 107.531 523.3 108.275 524.084C109.019 524.86 109.595 525.788 110.003 526.868C110.411 527.94 110.615 529.12 110.615 530.408ZM108.227 530.408C108.227 529.352 108.083 528.404 107.795 527.564C107.507 526.724 107.099 526.016 106.571 525.44C106.043 524.856 105.403 524.408 104.651 524.096C103.899 523.784 103.059 523.628 102.131 523.628C101.211 523.628 100.375 523.784 99.6233 524.096C98.8713 524.408 98.2273 524.856 97.6913 525.44C97.1633 526.016 96.7553 526.724 96.4673 527.564C96.1793 528.404 96.0353 529.352 96.0353 530.408C96.0353 531.464 96.1793 532.412 96.4673 533.252C96.7553 534.084 97.1633 534.792 97.6913 535.376C98.2273 535.952 98.8713 536.396 99.6233 536.708C100.375 537.012 101.211 537.164 102.131 537.164C103.059 537.164 103.899 537.012 104.651 536.708C105.403 536.396 106.043 535.952 106.571 535.376C107.099 534.792 107.507 534.084 107.795 533.252C108.083 532.412 108.227 531.464 108.227 530.408ZM115.71 530.132C116.382 530.132 116.974 530.052 117.486 529.892C118.006 529.724 118.438 529.492 118.782 529.196C119.134 528.892 119.398 528.532 119.574 528.116C119.75 527.7 119.838 527.24 119.838 526.736C119.838 525.712 119.502 524.94 118.83 524.42C118.158 523.9 117.15 523.64 115.806 523.64H113.262V530.132H115.71ZM123.654 539H121.59C121.166 539 120.854 538.836 120.654 538.508L116.19 532.364C116.054 532.172 115.906 532.036 115.746 531.956C115.594 531.868 115.354 531.824 115.026 531.824H113.262V539H110.946V521.804H115.806C116.894 521.804 117.834 521.916 118.626 522.14C119.418 522.356 120.07 522.672 120.582 523.088C121.102 523.504 121.486 524.008 121.734 524.6C121.982 525.184 122.106 525.84 122.106 526.568C122.106 527.176 122.01 527.744 121.818 528.272C121.626 528.8 121.346 529.276 120.978 529.7C120.618 530.116 120.174 530.472 119.646 530.768C119.126 531.064 118.534 531.288 117.87 531.44C118.166 531.608 118.422 531.852 118.638 532.172L123.654 539ZM133.601 537.104L133.589 539H122.993V521.804H133.589V523.7H125.321V529.412H132.017V531.236H125.321V537.104H133.601ZM151.736 521.804V539H149.696V526.364C149.696 526.196 149.7 526.016 149.708 525.824C149.724 525.632 149.74 525.436 149.756 525.236L143.852 535.988C143.668 536.348 143.388 536.528 143.012 536.528H142.676C142.3 536.528 142.02 536.348 141.836 535.988L135.812 525.188C135.86 525.612 135.884 526.004 135.884 526.364V539H133.844V521.804H135.56C135.768 521.804 135.928 521.824 136.04 521.864C136.152 521.904 136.26 522.016 136.364 522.2L142.304 532.784C142.4 532.976 142.492 533.176 142.58 533.384C142.676 533.592 142.764 533.804 142.844 534.02C142.924 533.804 143.008 533.592 143.096 533.384C143.184 533.168 143.28 532.964 143.384 532.772L149.216 522.2C149.312 522.016 149.416 521.904 149.528 521.864C149.648 521.824 149.812 521.804 150.02 521.804H151.736ZM158.602 539H156.274V521.804H158.602V539ZM165.077 530.72C165.741 530.72 166.325 530.632 166.829 530.456C167.341 530.28 167.769 530.036 168.113 529.724C168.465 529.404 168.729 529.024 168.905 528.584C169.081 528.144 169.169 527.66 169.169 527.132C169.169 526.036 168.829 525.18 168.149 524.564C167.477 523.948 166.453 523.64 165.077 523.64H162.317V530.72H165.077ZM165.077 521.804C166.165 521.804 167.109 521.932 167.909 522.188C168.717 522.436 169.385 522.792 169.913 523.256C170.441 523.72 170.833 524.28 171.089 524.936C171.353 525.592 171.485 526.324 171.485 527.132C171.485 527.932 171.345 528.664 171.065 529.328C170.785 529.992 170.373 530.564 169.829 531.044C169.293 531.524 168.625 531.9 167.825 532.172C167.033 532.436 166.117 532.568 165.077 532.568H162.317V539H160.001V521.804H165.077ZM180.211 524.492C180.139 524.612 180.059 524.704 179.971 524.768C179.891 524.824 179.791 524.852 179.671 524.852C179.535 524.852 179.375 524.784 179.191 524.648C179.007 524.512 178.775 524.364 178.495 524.204C178.223 524.036 177.891 523.884 177.499 523.748C177.115 523.612 176.647 523.544 176.095 523.544C175.575 523.544 175.115 523.616 174.715 523.76C174.323 523.896 173.991 524.084 173.719 524.324C173.455 524.564 173.255 524.848 173.119 525.176C172.983 525.496 172.915 525.844 172.915 526.22C172.915 526.7 173.031 527.1 173.263 527.42C173.503 527.732 173.815 528 174.199 528.224C174.591 528.448 175.031 528.644 175.519 528.812C176.015 528.972 176.519 529.14 177.031 529.316C177.551 529.492 178.055 529.692 178.543 529.916C179.039 530.132 179.479 530.408 179.863 530.744C180.255 531.08 180.567 531.492 180.799 531.98C181.039 532.468 181.159 533.068 181.159 533.78C181.159 534.532 181.031 535.24 180.775 535.904C180.519 536.56 180.143 537.132 179.647 537.62C179.159 538.108 178.555 538.492 177.835 538.772C177.123 539.052 176.311 539.192 175.399 539.192C174.279 539.192 173.263 538.992 172.351 538.592C171.439 538.184 170.659 537.636 170.011 536.948L170.683 535.844C170.747 535.756 170.823 535.684 170.911 535.628C171.007 535.564 171.111 535.532 171.223 535.532C171.327 535.532 171.443 535.576 171.571 535.664C171.707 535.744 171.859 535.848 172.027 535.976C172.195 536.104 172.387 536.244 172.603 536.396C172.819 536.548 173.063 536.688 173.335 536.816C173.615 536.944 173.931 537.052 174.283 537.14C174.635 537.22 175.031 537.26 175.471 537.26C176.023 537.26 176.515 537.184 176.947 537.032C177.379 536.88 177.743 536.668 178.039 536.396C178.343 536.116 178.575 535.784 178.735 535.4C178.895 535.016 178.975 534.588 178.975 534.116C178.975 533.596 178.855 533.172 178.615 532.844C178.383 532.508 178.075 532.228 177.691 532.004C177.307 531.78 176.867 531.592 176.371 531.44C175.875 531.28 175.371 531.12 174.859 530.96C174.347 530.792 173.843 530.6 173.347 530.384C172.851 530.168 172.411 529.888 172.027 529.544C171.643 529.2 171.331 528.772 171.091 528.26C170.859 527.74 170.743 527.1 170.743 526.34C170.743 525.732 170.859 525.144 171.091 524.576C171.331 524.008 171.675 523.504 172.123 523.064C172.579 522.624 173.135 522.272 173.791 522.008C174.455 521.744 175.215 521.612 176.071 521.612C177.031 521.612 177.903 521.764 178.687 522.068C179.479 522.372 180.175 522.812 180.775 523.388L180.211 524.492ZM188.082 537.152C188.794 537.152 189.43 537.032 189.99 536.792C190.55 536.552 191.022 536.216 191.406 535.784C191.798 535.352 192.094 534.836 192.294 534.236C192.502 533.636 192.606 532.976 192.606 532.256V521.804H194.922V532.256C194.922 533.248 194.762 534.168 194.442 535.016C194.13 535.864 193.678 536.6 193.086 537.224C192.502 537.84 191.786 538.324 190.938 538.676C190.09 539.028 189.138 539.204 188.082 539.204C187.026 539.204 186.074 539.028 185.226 538.676C184.378 538.324 183.658 537.84 183.066 537.224C182.474 536.6 182.018 535.864 181.698 535.016C181.386 534.168 181.23 533.248 181.23 532.256V521.804H183.546V532.244C183.546 532.964 183.646 533.624 183.846 534.224C184.054 534.824 184.35 535.34 184.734 535.772C185.126 536.204 185.602 536.544 186.162 536.792C186.73 537.032 187.37 537.152 188.082 537.152ZM213.986 521.804V539H211.946V526.364C211.946 526.196 211.95 526.016 211.958 525.824C211.974 525.632 211.99 525.436 212.006 525.236L206.102 535.988C205.918 536.348 205.638 536.528 205.262 536.528H204.926C204.55 536.528 204.27 536.348 204.086 535.988L198.062 525.188C198.11 525.612 198.134 526.004 198.134 526.364V539H196.094V521.804H197.81C198.018 521.804 198.178 521.824 198.29 521.864C198.402 521.904 198.51 522.016 198.614 522.2L204.554 532.784C204.65 532.976 204.742 533.176 204.83 533.384C204.926 533.592 205.014 533.804 205.094 534.02C205.174 533.804 205.258 533.592 205.346 533.384C205.434 533.168 205.53 532.964 205.634 532.772L211.466 522.2C211.562 522.016 211.666 521.904 211.778 521.864C211.898 521.824 212.062 521.804 212.27 521.804H213.986Z" fill="#F3D2D2"/>
<path d="M42.2625 526.346C42.2625 527.044 42.152 527.678 41.931 528.25C41.71 528.822 41.398 529.312 40.995 529.719C40.592 530.127 40.1067 530.443 39.539 530.668C38.9757 530.889 38.3517 531 37.667 531H34.1895V521.685H37.667C38.3517 521.685 38.9757 521.798 39.539 522.023C40.1067 522.244 40.592 522.561 40.995 522.972C41.398 523.38 41.71 523.869 41.931 524.441C42.152 525.013 42.2625 525.648 42.2625 526.346ZM40.969 526.346C40.969 525.774 40.891 525.263 40.735 524.812C40.579 524.361 40.358 523.98 40.072 523.668C39.786 523.356 39.4393 523.118 39.032 522.953C38.6247 522.788 38.1697 522.706 37.667 522.706H35.4505V529.979H37.667C38.1697 529.979 38.6247 529.897 39.032 529.732C39.4393 529.568 39.786 529.332 40.072 529.024C40.358 528.712 40.579 528.331 40.735 527.88C40.891 527.429 40.969 526.918 40.969 526.346ZM43.7151 531H42.4541V521.685H43.7151V531ZM47.0532 526.196C47.4172 526.196 47.7379 526.153 48.0152 526.066C48.2969 525.975 48.5309 525.85 48.7172 525.689C48.9079 525.525 49.0509 525.33 49.1462 525.104C49.2415 524.879 49.2892 524.63 49.2892 524.357C49.2892 523.802 49.1072 523.384 48.7432 523.102C48.3792 522.821 47.8332 522.68 47.1052 522.68H45.7272V526.196H47.0532ZM51.3562 531H50.2382C50.0085 531 49.8395 530.911 49.7312 530.733L47.3132 527.405C47.2395 527.301 47.1594 527.228 47.0727 527.184C46.9904 527.137 46.8604 527.113 46.6827 527.113H45.7272V531H44.4727V521.685H47.1052C47.6945 521.685 48.2037 521.746 48.6327 521.867C49.0617 521.984 49.4149 522.156 49.6922 522.381C49.9739 522.606 50.1819 522.879 50.3162 523.2C50.4505 523.516 50.5177 523.872 50.5177 524.266C50.5177 524.595 50.4657 524.903 50.3617 525.189C50.2577 525.475 50.106 525.733 49.9067 525.962C49.7117 526.188 49.4712 526.381 49.1852 526.541C48.9035 526.701 48.5829 526.823 48.2232 526.905C48.3835 526.996 48.5222 527.128 48.6392 527.301L51.3562 531ZM56.7441 529.973L56.7376 531H50.9981V521.685H56.7376V522.712H52.2591V525.806H55.8861V526.794H52.2591V529.973H56.7441ZM63.2119 529.076C63.2812 529.076 63.3419 529.104 63.3939 529.16L63.8944 529.7C63.5131 530.142 63.0494 530.486 62.5034 530.733C61.9617 530.981 61.3052 531.104 60.5339 531.104C59.8666 531.104 59.2599 530.989 58.7139 530.759C58.1679 530.525 57.7021 530.2 57.3164 529.784C56.9307 529.364 56.6317 528.861 56.4194 528.276C56.2071 527.691 56.1009 527.048 56.1009 526.346C56.1009 525.644 56.2114 525 56.4324 524.415C56.6534 523.83 56.9632 523.328 57.3619 522.907C57.7649 522.487 58.2459 522.162 58.8049 521.932C59.3639 521.698 59.9814 521.581 60.6574 521.581C61.3204 521.581 61.9054 521.688 62.4124 521.9C62.9194 522.112 63.3657 522.4 63.7514 522.764L63.3354 523.343C63.3094 523.386 63.2747 523.423 63.2314 523.453C63.1924 523.479 63.1382 523.492 63.0689 523.492C62.9909 523.492 62.8956 523.451 62.7829 523.369C62.6702 523.282 62.5229 523.187 62.3409 523.083C62.1589 522.979 61.9314 522.886 61.6584 522.803C61.3854 522.717 61.0496 522.673 60.6509 522.673C60.1699 522.673 59.7301 522.758 59.3314 522.927C58.9327 523.092 58.5882 523.332 58.2979 523.648C58.0119 523.965 57.7887 524.35 57.6284 524.805C57.4681 525.26 57.3879 525.774 57.3879 526.346C57.3879 526.927 57.4702 527.444 57.6349 527.899C57.8039 528.354 58.0314 528.74 58.3174 529.056C58.6077 529.368 58.9479 529.607 59.3379 529.771C59.7322 529.936 60.1569 530.018 60.6119 530.018C60.8892 530.018 61.1384 530.003 61.3594 529.973C61.5847 529.938 61.7906 529.886 61.9769 529.817C62.1676 529.748 62.3431 529.661 62.5034 529.557C62.6681 529.449 62.8306 529.321 62.9909 529.173C63.0646 529.108 63.1382 529.076 63.2119 529.076ZM70.03 522.745H67.014V531H65.7595V522.745H62.737V521.685H70.03V522.745ZM77.9742 526.346C77.9742 527.044 77.8637 527.685 77.6427 528.27C77.4217 528.851 77.1097 529.351 76.7067 529.771C76.3037 530.192 75.8184 530.519 75.2507 530.753C74.6874 530.983 74.0634 531.098 73.3787 531.098C72.694 531.098 72.07 530.983 71.5067 530.753C70.9434 530.519 70.4602 530.192 70.0572 529.771C69.6542 529.351 69.3422 528.851 69.1212 528.27C68.9002 527.685 68.7897 527.044 68.7897 526.346C68.7897 525.648 68.9002 525.009 69.1212 524.428C69.3422 523.843 69.6542 523.341 70.0572 522.92C70.4602 522.496 70.9434 522.166 71.5067 521.932C72.07 521.698 72.694 521.581 73.3787 521.581C74.0634 521.581 74.6874 521.698 75.2507 521.932C75.8184 522.166 76.3037 522.496 76.7067 522.92C77.1097 523.341 77.4217 523.843 77.6427 524.428C77.8637 525.009 77.9742 525.648 77.9742 526.346ZM76.6807 526.346C76.6807 525.774 76.6027 525.26 76.4467 524.805C76.2907 524.35 76.0697 523.967 75.7837 523.655C75.4977 523.339 75.151 523.096 74.7437 522.927C74.3364 522.758 73.8814 522.673 73.3787 522.673C72.8804 522.673 72.4275 522.758 72.0202 522.927C71.6129 523.096 71.264 523.339 70.9737 523.655C70.6877 523.967 70.4667 524.35 70.3107 524.805C70.1547 525.26 70.0767 525.774 70.0767 526.346C70.0767 526.918 70.1547 527.431 70.3107 527.886C70.4667 528.337 70.6877 528.721 70.9737 529.037C71.264 529.349 71.6129 529.589 72.0202 529.758C72.4275 529.923 72.8804 530.005 73.3787 530.005C73.8814 530.005 74.3364 529.923 74.7437 529.758C75.151 529.589 75.4977 529.349 75.7837 529.037C76.0697 528.721 76.2907 528.337 76.4467 527.886C76.6027 527.431 76.6807 526.918 76.6807 526.346ZM80.7339 526.196C81.0979 526.196 81.4185 526.153 81.6959 526.066C81.9775 525.975 82.2115 525.85 82.3979 525.689C82.5885 525.525 82.7315 525.33 82.8269 525.104C82.9222 524.879 82.9699 524.63 82.9699 524.357C82.9699 523.802 82.7879 523.384 82.4239 523.102C82.0599 522.821 81.5139 522.68 80.7859 522.68H79.4079V526.196H80.7339ZM85.0369 531H83.9189C83.6892 531 83.5202 530.911 83.4119 530.733L80.9939 527.405C80.9202 527.301 80.84 527.228 80.7534 527.184C80.671 527.137 80.541 527.113 80.3634 527.113H79.4079V531H78.1534V521.685H80.7859C81.3752 521.685 81.8844 521.746 82.3134 521.867C82.7424 521.984 83.0955 522.156 83.3729 522.381C83.6545 522.606 83.8625 522.879 83.9969 523.2C84.1312 523.516 84.1984 523.872 84.1984 524.266C84.1984 524.595 84.1464 524.903 84.0424 525.189C83.9384 525.475 83.7867 525.733 83.5874 525.962C83.3924 526.188 83.1519 526.381 82.8659 526.541C82.5842 526.701 82.2635 526.823 81.9039 526.905C82.0642 526.996 82.2029 527.128 82.3199 527.301L85.0369 531Z" fill="#F3D2D2"/>
<path d="M68.96 554.132C69.632 554.132 70.224 554.052 70.736 553.892C71.256 553.724 71.688 553.492 72.032 553.196C72.384 552.892 72.648 552.532 72.824 552.116C73 551.7 73.088 551.24 73.088 550.736C73.088 549.712 72.752 548.94 72.08 548.42C71.408 547.9 70.4 547.64 69.056 547.64H66.512V554.132H68.96ZM76.904 563H74.84C74.416 563 74.104 562.836 73.904 562.508L69.44 556.364C69.304 556.172 69.156 556.036 68.996 555.956C68.844 555.868 68.604 555.824 68.276 555.824H66.512V563H64.196V545.804H69.056C70.144 545.804 71.084 545.916 71.876 546.14C72.668 546.356 73.32 546.672 73.832 547.088C74.352 547.504 74.736 548.008 74.984 548.6C75.232 549.184 75.356 549.84 75.356 550.568C75.356 551.176 75.26 551.744 75.068 552.272C74.876 552.8 74.596 553.276 74.228 553.7C73.868 554.116 73.424 554.472 72.896 554.768C72.376 555.064 71.784 555.288 71.12 555.44C71.416 555.608 71.672 555.852 71.888 556.172L76.904 563ZM85.3749 556.616L82.6749 549.62C82.5949 549.412 82.5109 549.172 82.4229 548.9C82.3349 548.62 82.2509 548.324 82.1709 548.012C82.0029 548.66 81.8309 549.2 81.6549 549.632L78.9549 556.616H85.3749ZM90.2229 563H88.4229C88.2149 563 88.0469 562.948 87.9189 562.844C87.7909 562.74 87.6949 562.608 87.6309 562.448L86.0229 558.296H78.3069L76.6989 562.448C76.6509 562.592 76.5589 562.72 76.4229 562.832C76.2869 562.944 76.1189 563 75.9189 563H74.1189L80.9949 545.804H83.3469L90.2229 563ZM107.377 545.804V563H105.337V550.364C105.337 550.196 105.341 550.016 105.349 549.824C105.365 549.632 105.381 549.436 105.397 549.236L99.4931 559.988C99.3091 560.348 99.0291 560.528 98.6531 560.528H98.3171C97.9411 560.528 97.6611 560.348 97.4771 559.988L91.4531 549.188C91.5011 549.612 91.5251 550.004 91.5251 550.364V563H89.4851V545.804H91.2011C91.4091 545.804 91.5691 545.824 91.6811 545.864C91.7931 545.904 91.9011 546.016 92.0051 546.2L97.9451 556.784C98.0411 556.976 98.1331 557.176 98.2211 557.384C98.3171 557.592 98.4051 557.804 98.4851 558.02C98.5651 557.804 98.6491 557.592 98.7371 557.384C98.8251 557.168 98.9211 556.964 99.0251 556.772L104.857 546.2C104.953 546.016 105.057 545.904 105.169 545.864C105.289 545.824 105.453 545.804 105.661 545.804H107.377ZM123.678 554.408C123.678 555.696 123.474 556.868 123.066 557.924C122.658 558.98 122.082 559.884 121.338 560.636C120.594 561.388 119.698 561.972 118.65 562.388C117.61 562.796 116.458 563 115.194 563H108.774V545.804H115.194C116.458 545.804 117.61 546.012 118.65 546.428C119.698 546.836 120.594 547.42 121.338 548.18C122.082 548.932 122.658 549.836 123.066 550.892C123.474 551.948 123.678 553.12 123.678 554.408ZM121.29 554.408C121.29 553.352 121.146 552.408 120.858 551.576C120.57 550.744 120.162 550.04 119.634 549.464C119.106 548.888 118.466 548.448 117.714 548.144C116.962 547.84 116.122 547.688 115.194 547.688H111.102V561.116H115.194C116.122 561.116 116.962 560.964 117.714 560.66C118.466 560.356 119.106 559.92 119.634 559.352C120.162 558.776 120.57 558.072 120.858 557.24C121.146 556.408 121.29 555.464 121.29 554.408ZM126.36 563H124.032V545.804H126.36V563ZM145.803 554.408C145.803 555.696 145.599 556.868 145.191 557.924C144.783 558.98 144.207 559.884 143.463 560.636C142.719 561.388 141.823 561.972 140.775 562.388C139.735 562.796 138.583 563 137.319 563H130.899V545.804H137.319C138.583 545.804 139.735 546.012 140.775 546.428C141.823 546.836 142.719 547.42 143.463 548.18C144.207 548.932 144.783 549.836 145.191 550.892C145.599 551.948 145.803 553.12 145.803 554.408ZM143.415 554.408C143.415 553.352 143.271 552.408 142.983 551.576C142.695 550.744 142.287 550.04 141.759 549.464C141.231 548.888 140.591 548.448 139.839 548.144C139.087 547.84 138.247 547.688 137.319 547.688H133.227V561.116H137.319C138.247 561.116 139.087 560.964 139.839 560.66C140.591 560.356 141.231 559.92 141.759 559.352C142.287 558.776 142.695 558.072 142.983 557.24C143.271 556.408 143.415 555.464 143.415 554.408ZM154.82 556.616L152.12 549.62C152.04 549.412 151.956 549.172 151.868 548.9C151.78 548.62 151.696 548.324 151.616 548.012C151.448 548.66 151.276 549.2 151.1 549.632L148.4 556.616H154.82ZM159.668 563H157.868C157.66 563 157.492 562.948 157.364 562.844C157.236 562.74 157.14 562.608 157.076 562.448L155.468 558.296H147.752L146.144 562.448C146.096 562.592 146.004 562.72 145.868 562.832C145.732 562.944 145.564 563 145.364 563H143.564L150.44 545.804H152.792L159.668 563ZM176.822 545.804V563H174.782V550.364C174.782 550.196 174.786 550.016 174.794 549.824C174.81 549.632 174.826 549.436 174.842 549.236L168.938 559.988C168.754 560.348 168.474 560.528 168.098 560.528H167.762C167.386 560.528 167.106 560.348 166.922 559.988L160.898 549.188C160.946 549.612 160.97 550.004 160.97 550.364V563H158.93V545.804H160.646C160.854 545.804 161.014 545.824 161.126 545.864C161.238 545.904 161.346 546.016 161.45 546.2L167.39 556.784C167.486 556.976 167.578 557.176 167.666 557.384C167.762 557.592 167.85 557.804 167.93 558.02C168.01 557.804 168.094 557.592 168.182 557.384C168.27 557.168 168.366 556.964 168.47 556.772L174.302 546.2C174.398 546.016 174.502 545.904 174.614 545.864C174.734 545.824 174.898 545.804 175.106 545.804H176.822Z" fill="#F3D2D2"/>
<path d="M46.26 545.685L43.3545 555H42.2235L39.864 547.895C39.8423 547.826 39.8207 547.752 39.799 547.674C39.7817 547.596 39.7622 547.514 39.7405 547.427C39.7188 547.514 39.6972 547.596 39.6755 547.674C39.6538 547.752 39.6322 547.826 39.6105 547.895L37.238 555H36.107L33.2015 545.685H34.248C34.3607 545.685 34.4538 545.714 34.5275 545.77C34.6055 545.826 34.6553 545.898 34.677 545.984L36.601 552.458C36.6313 552.575 36.6595 552.701 36.6855 552.835C36.7158 552.97 36.744 553.113 36.77 553.264C36.8003 553.113 36.8307 552.97 36.861 552.835C36.8957 552.697 36.9325 552.571 36.9715 552.458L39.162 545.984C39.188 545.911 39.2378 545.844 39.3115 545.783C39.3895 545.718 39.4827 545.685 39.591 545.685H39.955C40.0677 545.685 40.1587 545.714 40.228 545.77C40.2973 545.826 40.3493 545.898 40.384 545.984L42.568 552.458C42.607 552.571 42.6417 552.692 42.672 552.822C42.7067 552.952 42.7392 553.089 42.7695 553.232C42.7912 553.089 42.815 552.952 42.841 552.822C42.867 552.692 42.8952 552.571 42.9255 552.458L44.856 545.984C44.8777 545.906 44.9253 545.837 44.999 545.776C45.077 545.716 45.1702 545.685 45.2785 545.685H46.26ZM47.2825 555H46.0215V545.685H47.2825V555ZM54.3386 546.745H51.3226V555H50.0681V546.745H47.0456V545.685H54.3386V546.745ZM61.6423 545.685V555H60.3813V550.762H55.3568V555H54.0958V545.685H55.3568V549.839H60.3813V545.685H61.6423Z" fill="#F3D2D2"/>
<path d="M275.1 530.408C275.1 531.696 274.896 532.868 274.488 533.924C274.08 534.98 273.504 535.884 272.76 536.636C272.016 537.388 271.12 537.972 270.072 538.388C269.032 538.796 267.88 539 266.616 539H260.196V521.804H266.616C267.88 521.804 269.032 522.012 270.072 522.428C271.12 522.836 272.016 523.42 272.76 524.18C273.504 524.932 274.08 525.836 274.488 526.892C274.896 527.948 275.1 529.12 275.1 530.408ZM272.712 530.408C272.712 529.352 272.568 528.408 272.28 527.576C271.992 526.744 271.584 526.04 271.056 525.464C270.528 524.888 269.888 524.448 269.136 524.144C268.384 523.84 267.544 523.688 266.616 523.688H262.524V537.116H266.616C267.544 537.116 268.384 536.964 269.136 536.66C269.888 536.356 270.528 535.92 271.056 535.352C271.584 534.776 271.992 534.072 272.28 533.24C272.568 532.408 272.712 531.464 272.712 530.408ZM277.782 539H275.454V521.804H277.782V539ZM283.944 530.132C284.616 530.132 285.208 530.052 285.72 529.892C286.24 529.724 286.672 529.492 287.016 529.196C287.368 528.892 287.632 528.532 287.808 528.116C287.984 527.7 288.072 527.24 288.072 526.736C288.072 525.712 287.736 524.94 287.064 524.42C286.392 523.9 285.384 523.64 284.04 523.64H281.496V530.132H283.944ZM291.888 539H289.824C289.4 539 289.088 538.836 288.888 538.508L284.424 532.364C284.288 532.172 284.14 532.036 283.98 531.956C283.828 531.868 283.588 531.824 283.26 531.824H281.496V539H279.18V521.804H284.04C285.128 521.804 286.068 521.916 286.86 522.14C287.652 522.356 288.304 522.672 288.816 523.088C289.336 523.504 289.72 524.008 289.968 524.6C290.216 525.184 290.34 525.84 290.34 526.568C290.34 527.176 290.244 527.744 290.052 528.272C289.86 528.8 289.58 529.276 289.212 529.7C288.852 530.116 288.408 530.472 287.88 530.768C287.36 531.064 286.768 531.288 286.104 531.44C286.4 531.608 286.656 531.852 286.872 532.172L291.888 539ZM297.77 537.152C298.482 537.152 299.118 537.032 299.678 536.792C300.238 536.552 300.71 536.216 301.094 535.784C301.486 535.352 301.782 534.836 301.982 534.236C302.19 533.636 302.294 532.976 302.294 532.256V521.804H304.61V532.256C304.61 533.248 304.45 534.168 304.13 535.016C303.818 535.864 303.366 536.6 302.773 537.224C302.19 537.84 301.474 538.324 300.626 538.676C299.778 539.028 298.826 539.204 297.77 539.204C296.714 539.204 295.762 539.028 294.914 538.676C294.066 538.324 293.346 537.84 292.754 537.224C292.162 536.6 291.706 535.864 291.386 535.016C291.074 534.168 290.918 533.248 290.918 532.256V521.804H293.234V532.244C293.234 532.964 293.334 533.624 293.534 534.224C293.742 534.824 294.038 535.34 294.422 535.772C294.814 536.204 295.29 536.544 295.85 536.792C296.418 537.032 297.058 537.152 297.77 537.152ZM323.674 521.804V539H321.634V526.364C321.634 526.196 321.638 526.016 321.646 525.824C321.662 525.632 321.678 525.436 321.694 525.236L315.79 535.988C315.606 536.348 315.326 536.528 314.95 536.528H314.614C314.238 536.528 313.958 536.348 313.774 535.988L307.75 525.188C307.798 525.612 307.822 526.004 307.822 526.364V539H305.782V521.804H307.498C307.706 521.804 307.866 521.824 307.978 521.864C308.09 521.904 308.198 522.016 308.302 522.2L314.242 532.784C314.338 532.976 314.43 533.176 314.518 533.384C314.614 533.592 314.702 533.804 314.782 534.02C314.862 533.804 314.946 533.592 315.034 533.384C315.122 533.168 315.218 532.964 315.322 532.772L321.154 522.2C321.25 522.016 321.354 521.904 321.466 521.864C321.586 521.824 321.75 521.804 321.958 521.804H323.674ZM337.008 524.492C336.936 524.612 336.856 524.704 336.768 524.768C336.688 524.824 336.588 524.852 336.468 524.852C336.332 524.852 336.172 524.784 335.988 524.648C335.804 524.512 335.572 524.364 335.292 524.204C335.02 524.036 334.688 523.884 334.296 523.748C333.912 523.612 333.444 523.544 332.892 523.544C332.372 523.544 331.912 523.616 331.512 523.76C331.12 523.896 330.788 524.084 330.516 524.324C330.252 524.564 330.052 524.848 329.916 525.176C329.78 525.496 329.712 525.844 329.712 526.22C329.712 526.7 329.828 527.1 330.06 527.42C330.3 527.732 330.612 528 330.996 528.224C331.388 528.448 331.828 528.644 332.316 528.812C332.812 528.972 333.316 529.14 333.828 529.316C334.348 529.492 334.852 529.692 335.34 529.916C335.836 530.132 336.276 530.408 336.66 530.744C337.052 531.08 337.364 531.492 337.596 531.98C337.836 532.468 337.956 533.068 337.956 533.78C337.956 534.532 337.828 535.24 337.572 535.904C337.316 536.56 336.94 537.132 336.444 537.62C335.956 538.108 335.352 538.492 334.632 538.772C333.92 539.052 333.108 539.192 332.196 539.192C331.076 539.192 330.06 538.992 329.148 538.592C328.236 538.184 327.456 537.636 326.808 536.948L327.48 535.844C327.544 535.756 327.62 535.684 327.708 535.628C327.804 535.564 327.908 535.532 328.02 535.532C328.124 535.532 328.24 535.576 328.368 535.664C328.504 535.744 328.656 535.848 328.824 535.976C328.992 536.104 329.184 536.244 329.4 536.396C329.616 536.548 329.86 536.688 330.132 536.816C330.412 536.944 330.728 537.052 331.08 537.14C331.432 537.22 331.828 537.26 332.268 537.26C332.82 537.26 333.312 537.184 333.744 537.032C334.176 536.88 334.54 536.668 334.836 536.396C335.14 536.116 335.372 535.784 335.532 535.4C335.692 535.016 335.772 534.588 335.772 534.116C335.772 533.596 335.652 533.172 335.412 532.844C335.18 532.508 334.872 532.228 334.488 532.004C334.104 531.78 333.664 531.592 333.168 531.44C332.672 531.28 332.168 531.12 331.656 530.96C331.144 530.792 330.64 530.6 330.144 530.384C329.648 530.168 329.208 529.888 328.824 529.544C328.44 529.2 328.128 528.772 327.888 528.26C327.656 527.74 327.54 527.1 327.54 526.34C327.54 525.732 327.656 525.144 327.888 524.576C328.128 524.008 328.472 523.504 328.92 523.064C329.376 522.624 329.932 522.272 330.588 522.008C331.252 521.744 332.012 521.612 332.868 521.612C333.828 521.612 334.7 521.764 335.484 522.068C336.276 522.372 336.972 522.812 337.572 523.388L337.008 524.492ZM347.07 532.616L344.37 525.62C344.29 525.412 344.206 525.172 344.118 524.9C344.03 524.62 343.946 524.324 343.866 524.012C343.698 524.66 343.526 525.2 343.35 525.632L340.65 532.616H347.07ZM351.918 539H350.118C349.91 539 349.742 538.948 349.614 538.844C349.486 538.74 349.39 538.608 349.326 538.448L347.718 534.296H340.002L338.394 538.448C338.346 538.592 338.254 538.72 338.118 538.832C337.982 538.944 337.814 539 337.614 539H335.814L342.69 521.804H345.042L351.918 539ZM356.256 530.72C356.92 530.72 357.504 530.632 358.008 530.456C358.52 530.28 358.948 530.036 359.292 529.724C359.644 529.404 359.908 529.024 360.084 528.584C360.26 528.144 360.348 527.66 360.348 527.132C360.348 526.036 360.008 525.18 359.328 524.564C358.656 523.948 357.632 523.64 356.256 523.64H353.496V530.72H356.256ZM356.256 521.804C357.344 521.804 358.288 521.932 359.088 522.188C359.896 522.436 360.564 522.792 361.092 523.256C361.62 523.72 362.012 524.28 362.268 524.936C362.532 525.592 362.664 526.324 362.664 527.132C362.664 527.932 362.524 528.664 362.244 529.328C361.964 529.992 361.552 530.564 361.008 531.044C360.472 531.524 359.804 531.9 359.004 532.172C358.212 532.436 357.296 532.568 356.256 532.568H353.496V539H351.18V521.804H356.256Z" fill="#F3D2D2"/>
<path d="M231.26 521.685L228.355 531H227.224L224.864 523.895C224.842 523.826 224.821 523.752 224.799 523.674C224.782 523.596 224.762 523.514 224.741 523.427C224.719 523.514 224.697 523.596 224.676 523.674C224.654 523.752 224.632 523.826 224.611 523.895L222.238 531H221.107L218.202 521.685H219.248C219.361 521.685 219.454 521.714 219.528 521.77C219.606 521.826 219.655 521.898 219.677 521.984L221.601 528.458C221.631 528.575 221.66 528.701 221.686 528.835C221.716 528.97 221.744 529.113 221.77 529.264C221.8 529.113 221.831 528.97 221.861 528.835C221.896 528.697 221.933 528.571 221.972 528.458L224.162 521.984C224.188 521.911 224.238 521.844 224.312 521.783C224.39 521.718 224.483 521.685 224.591 521.685H224.955C225.068 521.685 225.159 521.714 225.228 521.77C225.297 521.826 225.349 521.898 225.384 521.984L227.568 528.458C227.607 528.571 227.642 528.692 227.672 528.822C227.707 528.952 227.739 529.089 227.77 529.232C227.791 529.089 227.815 528.952 227.841 528.822C227.867 528.692 227.895 528.571 227.926 528.458L229.856 521.984C229.878 521.906 229.925 521.837 229.999 521.776C230.077 521.716 230.17 521.685 230.279 521.685H231.26ZM233.602 526.196C233.966 526.196 234.287 526.153 234.564 526.066C234.846 525.975 235.08 525.85 235.266 525.689C235.457 525.525 235.6 525.33 235.695 525.104C235.79 524.879 235.838 524.63 235.838 524.357C235.838 523.802 235.656 523.384 235.292 523.102C234.928 522.821 234.382 522.68 233.654 522.68H232.276V526.196H233.602ZM237.905 531H236.787C236.557 531 236.388 530.911 236.28 530.733L233.862 527.405C233.788 527.301 233.708 527.228 233.622 527.184C233.539 527.137 233.409 527.113 233.232 527.113H232.276V531H231.022V521.685H233.654C234.243 521.685 234.753 521.746 235.182 521.867C235.611 521.984 235.964 522.156 236.241 522.381C236.523 522.606 236.731 522.879 236.865 523.2C236.999 523.516 237.067 523.872 237.067 524.266C237.067 524.595 237.015 524.903 236.911 525.189C236.807 525.475 236.655 525.733 236.456 525.962C236.261 526.188 236.02 526.381 235.734 526.541C235.452 526.701 235.132 526.823 234.772 526.905C234.932 526.996 235.071 527.128 235.188 527.301L237.905 531ZM238.808 531H237.547V521.685H238.808V531ZM245.864 522.745H242.848V531H241.593V522.745H238.571V521.685H245.864V522.745ZM251.367 529.973L251.361 531H245.621V521.685H251.361V522.712H246.882V525.806H250.509V526.794H246.882V529.973H251.367ZM254.08 526.196C254.444 526.196 254.764 526.153 255.042 526.066C255.323 525.975 255.557 525.85 255.744 525.689C255.934 525.525 256.077 525.33 256.173 525.104C256.268 524.879 256.316 524.63 256.316 524.357C256.316 523.802 256.134 523.384 255.77 523.102C255.406 522.821 254.86 522.68 254.132 522.68H252.754V526.196H254.08ZM258.383 531H257.265C257.035 531 256.866 530.911 256.758 530.733L254.34 527.405C254.266 527.301 254.186 527.228 254.099 527.184C254.017 527.137 253.887 527.113 253.709 527.113H252.754V531H251.499V521.685H254.132C254.721 521.685 255.23 521.746 255.659 521.867C256.088 521.984 256.441 522.156 256.719 522.381C257 522.606 257.208 522.879 257.343 523.2C257.477 523.516 257.544 523.872 257.544 524.266C257.544 524.595 257.492 524.903 257.388 525.189C257.284 525.475 257.132 525.733 256.933 525.962C256.738 526.188 256.498 526.381 256.212 526.541C255.93 526.701 255.609 526.823 255.25 526.905C255.41 526.996 255.549 527.128 255.666 527.301L258.383 531Z" fill="#F3D2D2"/>
<path d="M188.96 554.132C189.632 554.132 190.224 554.052 190.736 553.892C191.256 553.724 191.688 553.492 192.032 553.196C192.384 552.892 192.648 552.532 192.824 552.116C193 551.7 193.088 551.24 193.088 550.736C193.088 549.712 192.752 548.94 192.08 548.42C191.408 547.9 190.4 547.64 189.056 547.64H186.512V554.132H188.96ZM196.904 563H194.84C194.416 563 194.104 562.836 193.904 562.508L189.44 556.364C189.304 556.172 189.156 556.036 188.996 555.956C188.844 555.868 188.604 555.824 188.276 555.824H186.512V563H184.196V545.804H189.056C190.144 545.804 191.084 545.916 191.876 546.14C192.668 546.356 193.32 546.672 193.832 547.088C194.352 547.504 194.736 548.008 194.984 548.6C195.232 549.184 195.356 549.84 195.356 550.568C195.356 551.176 195.26 551.744 195.068 552.272C194.876 552.8 194.596 553.276 194.228 553.7C193.868 554.116 193.424 554.472 192.896 554.768C192.376 555.064 191.784 555.288 191.12 555.44C191.416 555.608 191.672 555.852 191.888 556.172L196.904 563ZM211.967 554.408C211.967 555.696 211.763 556.88 211.355 557.96C210.947 559.032 210.371 559.956 209.627 560.732C208.883 561.508 207.987 562.112 206.939 562.544C205.899 562.968 204.747 563.18 203.483 563.18C202.219 563.18 201.067 562.968 200.027 562.544C198.987 562.112 198.095 561.508 197.351 560.732C196.607 559.956 196.031 559.032 195.623 557.96C195.215 556.88 195.011 555.696 195.011 554.408C195.011 553.12 195.215 551.94 195.623 550.868C196.031 549.788 196.607 548.86 197.351 548.084C198.095 547.3 198.987 546.692 200.027 546.26C201.067 545.828 202.219 545.612 203.483 545.612C204.747 545.612 205.899 545.828 206.939 546.26C207.987 546.692 208.883 547.3 209.627 548.084C210.371 548.86 210.947 549.788 211.355 550.868C211.763 551.94 211.967 553.12 211.967 554.408ZM209.579 554.408C209.579 553.352 209.435 552.404 209.147 551.564C208.859 550.724 208.451 550.016 207.923 549.44C207.395 548.856 206.755 548.408 206.003 548.096C205.251 547.784 204.411 547.628 203.483 547.628C202.563 547.628 201.727 547.784 200.975 548.096C200.223 548.408 199.579 548.856 199.043 549.44C198.515 550.016 198.107 550.724 197.819 551.564C197.531 552.404 197.387 553.352 197.387 554.408C197.387 555.464 197.531 556.412 197.819 557.252C198.107 558.084 198.515 558.792 199.043 559.376C199.579 559.952 200.223 560.396 200.975 560.708C201.727 561.012 202.563 561.164 203.483 561.164C204.411 561.164 205.251 561.012 206.003 560.708C206.755 560.396 207.395 559.952 207.923 559.376C208.451 558.792 208.859 558.084 209.147 557.252C209.435 556.412 209.579 555.464 209.579 554.408ZM230.19 545.804V563H228.15V550.364C228.15 550.196 228.154 550.016 228.162 549.824C228.178 549.632 228.194 549.436 228.21 549.236L222.306 559.988C222.122 560.348 221.842 560.528 221.466 560.528H221.13C220.754 560.528 220.474 560.348 220.29 559.988L214.266 549.188C214.314 549.612 214.338 550.004 214.338 550.364V563H212.298V545.804H214.014C214.222 545.804 214.382 545.824 214.494 545.864C214.606 545.904 214.714 546.016 214.818 546.2L220.758 556.784C220.854 556.976 220.946 557.176 221.034 557.384C221.13 557.592 221.218 557.804 221.298 558.02C221.378 557.804 221.462 557.592 221.55 557.384C221.638 557.168 221.734 556.964 221.838 556.772L227.67 546.2C227.766 546.016 227.87 545.904 227.982 545.864C228.102 545.824 228.266 545.804 228.474 545.804H230.19ZM240.719 556.616L238.019 549.62C237.939 549.412 237.855 549.172 237.767 548.9C237.679 548.62 237.595 548.324 237.515 548.012C237.347 548.66 237.175 549.2 236.999 549.632L234.299 556.616H240.719ZM245.567 563H243.767C243.559 563 243.391 562.948 243.263 562.844C243.135 562.74 243.039 562.608 242.975 562.448L241.367 558.296H233.651L232.043 562.448C231.995 562.592 231.903 562.72 231.767 562.832C231.631 562.944 231.463 563 231.263 563H229.463L236.339 545.804H238.691L245.567 563ZM259.733 554.408C259.733 555.696 259.529 556.868 259.121 557.924C258.713 558.98 258.137 559.884 257.393 560.636C256.649 561.388 255.753 561.972 254.705 562.388C253.665 562.796 252.513 563 251.249 563H244.829V545.804H251.249C252.513 545.804 253.665 546.012 254.705 546.428C255.753 546.836 256.649 547.42 257.393 548.18C258.137 548.932 258.713 549.836 259.121 550.892C259.529 551.948 259.733 553.12 259.733 554.408ZM257.345 554.408C257.345 553.352 257.201 552.408 256.913 551.576C256.625 550.744 256.217 550.04 255.689 549.464C255.161 548.888 254.521 548.448 253.769 548.144C253.017 547.84 252.177 547.688 251.249 547.688H247.157V561.116H251.249C252.177 561.116 253.017 560.964 253.769 560.66C254.521 560.356 255.161 559.92 255.689 559.352C256.217 558.776 256.625 558.072 256.913 557.24C257.201 556.408 257.345 555.464 257.345 554.408ZM275.975 554.408C275.975 555.696 275.771 556.88 275.363 557.96C274.955 559.032 274.379 559.956 273.635 560.732C272.891 561.508 271.995 562.112 270.947 562.544C269.907 562.968 268.755 563.18 267.491 563.18C266.227 563.18 265.075 562.968 264.035 562.544C262.995 562.112 262.103 561.508 261.359 560.732C260.615 559.956 260.039 559.032 259.631 557.96C259.223 556.88 259.019 555.696 259.019 554.408C259.019 553.12 259.223 551.94 259.631 550.868C260.039 549.788 260.615 548.86 261.359 548.084C262.103 547.3 262.995 546.692 264.035 546.26C265.075 545.828 266.227 545.612 267.491 545.612C268.755 545.612 269.907 545.828 270.947 546.26C271.995 546.692 272.891 547.3 273.635 548.084C274.379 548.86 274.955 549.788 275.363 550.868C275.771 551.94 275.975 553.12 275.975 554.408ZM273.587 554.408C273.587 553.352 273.443 552.404 273.155 551.564C272.867 550.724 272.459 550.016 271.931 549.44C271.403 548.856 270.763 548.408 270.011 548.096C269.259 547.784 268.419 547.628 267.491 547.628C266.571 547.628 265.735 547.784 264.983 548.096C264.231 548.408 263.587 548.856 263.051 549.44C262.523 550.016 262.115 550.724 261.827 551.564C261.539 552.404 261.395 553.352 261.395 554.408C261.395 555.464 261.539 556.412 261.827 557.252C262.115 558.084 262.523 558.792 263.051 559.376C263.587 559.952 264.231 560.396 264.983 560.708C265.735 561.012 266.571 561.164 267.491 561.164C268.419 561.164 269.259 561.012 270.011 560.708C270.763 560.396 271.403 559.952 271.931 559.376C272.459 558.792 272.867 558.084 273.155 557.252C273.443 556.412 273.587 555.464 273.587 554.408ZM294.197 545.804V563H292.157V550.364C292.157 550.196 292.161 550.016 292.169 549.824C292.185 549.632 292.201 549.436 292.217 549.236L286.313 559.988C286.129 560.348 285.849 560.528 285.473 560.528H285.137C284.761 560.528 284.481 560.348 284.297 559.988L278.273 549.188C278.321 549.612 278.345 550.004 278.345 550.364V563H276.305V545.804H278.021C278.229 545.804 278.389 545.824 278.501 545.864C278.613 545.904 278.721 546.016 278.825 546.2L284.765 556.784C284.861 556.976 284.953 557.176 285.041 557.384C285.137 557.592 285.225 557.804 285.305 558.02C285.385 557.804 285.469 557.592 285.557 557.384C285.645 557.168 285.741 556.964 285.845 556.772L291.677 546.2C291.773 546.016 291.877 545.904 291.989 545.864C292.109 545.824 292.273 545.804 292.481 545.804H294.197Z" fill="#F3D2D2"/>
<path d="M363.1 554.408C363.1 555.696 362.896 556.868 362.488 557.924C362.08 558.98 361.504 559.884 360.76 560.636C360.016 561.388 359.12 561.972 358.072 562.388C357.032 562.796 355.88 563 354.616 563H348.196V545.804H354.616C355.88 545.804 357.032 546.012 358.072 546.428C359.12 546.836 360.016 547.42 360.76 548.18C361.504 548.932 362.08 549.836 362.488 550.892C362.896 551.948 363.1 553.12 363.1 554.408ZM360.712 554.408C360.712 553.352 360.568 552.408 360.28 551.576C359.992 550.744 359.584 550.04 359.056 549.464C358.528 548.888 357.888 548.448 357.136 548.144C356.384 547.84 355.544 547.688 354.616 547.688H350.524V561.116H354.616C355.544 561.116 356.384 560.964 357.136 560.66C357.888 560.356 358.528 559.92 359.056 559.352C359.584 558.776 359.992 558.072 360.28 557.24C360.568 556.408 360.712 555.464 360.712 554.408ZM365.782 563H363.454V545.804H365.782V563Z" fill="#F3D2D2"/>
<path d="M301.954 548.141C301.915 548.206 301.872 548.256 301.824 548.291C301.781 548.321 301.727 548.336 301.662 548.336C301.588 548.336 301.501 548.3 301.402 548.226C301.302 548.152 301.176 548.072 301.025 547.985C300.877 547.894 300.697 547.812 300.485 547.738C300.277 547.665 300.024 547.628 299.725 547.628C299.443 547.628 299.194 547.667 298.977 547.745C298.765 547.819 298.585 547.92 298.438 548.05C298.295 548.18 298.186 548.334 298.113 548.512C298.039 548.685 298.002 548.874 298.002 549.077C298.002 549.337 298.065 549.554 298.191 549.727C298.321 549.896 298.49 550.042 298.698 550.163C298.91 550.284 299.148 550.39 299.413 550.481C299.681 550.568 299.954 550.659 300.232 550.754C300.513 550.85 300.786 550.958 301.051 551.079C301.319 551.196 301.558 551.346 301.766 551.528C301.978 551.71 302.147 551.933 302.273 552.197C302.403 552.462 302.468 552.787 302.468 553.172C302.468 553.58 302.398 553.963 302.26 554.323C302.121 554.678 301.917 554.988 301.649 555.252C301.384 555.517 301.057 555.725 300.667 555.876C300.281 556.028 299.842 556.104 299.348 556.104C298.741 556.104 298.191 555.996 297.697 555.779C297.203 555.558 296.78 555.261 296.429 554.888L296.793 554.29C296.828 554.243 296.869 554.204 296.917 554.173C296.969 554.139 297.025 554.121 297.086 554.121C297.142 554.121 297.205 554.145 297.274 554.193C297.348 554.236 297.43 554.293 297.521 554.362C297.612 554.431 297.716 554.507 297.833 554.589C297.95 554.672 298.082 554.748 298.23 554.817C298.381 554.886 298.552 554.945 298.743 554.992C298.934 555.036 299.148 555.057 299.387 555.057C299.686 555.057 299.952 555.016 300.186 554.934C300.42 554.852 300.617 554.737 300.778 554.589C300.942 554.438 301.068 554.258 301.155 554.05C301.241 553.842 301.285 553.61 301.285 553.354C301.285 553.073 301.22 552.843 301.09 552.665C300.964 552.483 300.797 552.332 300.589 552.21C300.381 552.089 300.143 551.987 299.874 551.905C299.605 551.818 299.332 551.732 299.055 551.645C298.778 551.554 298.505 551.45 298.236 551.333C297.967 551.216 297.729 551.064 297.521 550.878C297.313 550.692 297.144 550.46 297.014 550.182C296.888 549.901 296.826 549.554 296.826 549.142C296.826 548.813 296.888 548.495 297.014 548.187C297.144 547.879 297.33 547.606 297.573 547.368C297.82 547.13 298.121 546.939 298.477 546.796C298.836 546.653 299.248 546.581 299.712 546.581C300.232 546.581 300.704 546.664 301.129 546.828C301.558 546.993 301.935 547.231 302.26 547.543L301.954 548.141ZM308.922 547.745H305.906V556H304.651V547.745H301.629V546.685H308.922V547.745ZM312.711 552.542L311.249 548.752C311.205 548.64 311.16 548.51 311.112 548.362C311.065 548.211 311.019 548.05 310.976 547.881C310.885 548.232 310.792 548.525 310.696 548.759L309.234 552.542H312.711ZM315.337 556H314.362C314.25 556 314.159 555.972 314.089 555.915C314.02 555.859 313.968 555.788 313.933 555.701L313.062 553.452H308.883L308.012 555.701C307.986 555.779 307.936 555.848 307.862 555.909C307.789 555.97 307.698 556 307.589 556H306.614L310.339 546.685H311.613L315.337 556ZM317.518 551.196C317.882 551.196 318.203 551.153 318.48 551.066C318.762 550.975 318.996 550.85 319.182 550.689C319.373 550.525 319.516 550.33 319.611 550.104C319.706 549.879 319.754 549.63 319.754 549.357C319.754 548.802 319.572 548.384 319.208 548.102C318.844 547.821 318.298 547.68 317.57 547.68H316.192V551.196H317.518ZM321.821 556H320.703C320.473 556 320.304 555.911 320.196 555.733L317.778 552.405C317.704 552.301 317.624 552.228 317.538 552.184C317.455 552.137 317.325 552.113 317.148 552.113H316.192V556H314.938V546.685H317.57C318.159 546.685 318.669 546.746 319.098 546.867C319.527 546.984 319.88 547.156 320.157 547.381C320.439 547.606 320.647 547.879 320.781 548.2C320.915 548.516 320.983 548.872 320.983 549.266C320.983 549.595 320.931 549.903 320.827 550.189C320.723 550.475 320.571 550.733 320.372 550.962C320.177 551.188 319.936 551.381 319.65 551.541C319.368 551.701 319.048 551.823 318.688 551.905C318.848 551.996 318.987 552.128 319.104 552.301L321.821 556ZM324.043 551.196C324.407 551.196 324.728 551.153 325.005 551.066C325.287 550.975 325.521 550.85 325.707 550.689C325.898 550.525 326.041 550.33 326.136 550.104C326.232 549.879 326.279 549.63 326.279 549.357C326.279 548.802 326.097 548.384 325.733 548.102C325.369 547.821 324.823 547.68 324.095 547.68H322.717V551.196H324.043ZM328.346 556H327.228C326.999 556 326.83 555.911 326.721 555.733L324.303 552.405C324.23 552.301 324.15 552.228 324.063 552.184C323.981 552.137 323.851 552.113 323.673 552.113H322.717V556H321.463V546.685H324.095C324.685 546.685 325.194 546.746 325.623 546.867C326.052 546.984 326.405 547.156 326.682 547.381C326.964 547.606 327.172 547.879 327.306 548.2C327.441 548.516 327.508 548.872 327.508 549.266C327.508 549.595 327.456 549.903 327.352 550.189C327.248 550.475 327.096 550.733 326.897 550.962C326.702 551.188 326.461 551.381 326.175 551.541C325.894 551.701 325.573 551.823 325.213 551.905C325.374 551.996 325.512 552.128 325.629 552.301L328.346 556ZM329.249 556H327.988V546.685H329.249V556ZM337.553 546.685V556H336.923C336.823 556 336.739 555.983 336.669 555.948C336.604 555.913 336.539 555.855 336.474 555.772L331.086 548.752C331.095 548.861 331.101 548.967 331.105 549.071C331.11 549.175 331.112 549.272 331.112 549.363V556H330.007V546.685H330.657C330.713 546.685 330.761 546.69 330.8 546.698C330.839 546.703 330.874 546.714 330.904 546.731C330.934 546.744 330.965 546.766 330.995 546.796C331.025 546.822 331.058 546.857 331.092 546.9L336.481 553.913C336.472 553.801 336.464 553.692 336.455 553.588C336.451 553.48 336.448 553.378 336.448 553.283V546.685H337.553ZM345.876 551.521V555.096C345.408 555.434 344.907 555.688 344.374 555.857C343.845 556.022 343.265 556.104 342.632 556.104C341.882 556.104 341.206 555.989 340.604 555.759C340.002 555.525 339.486 555.2 339.057 554.784C338.632 554.364 338.305 553.861 338.076 553.276C337.846 552.691 337.731 552.048 337.731 551.346C337.731 550.635 337.842 549.987 338.063 549.402C338.288 548.817 338.606 548.317 339.018 547.901C339.43 547.481 339.93 547.156 340.52 546.926C341.109 546.696 341.768 546.581 342.496 546.581C342.864 546.581 343.206 546.61 343.523 546.666C343.839 546.718 344.131 546.796 344.4 546.9C344.669 547 344.918 547.123 345.148 547.27C345.377 547.413 345.592 547.576 345.791 547.758L345.434 548.33C345.377 548.417 345.304 548.473 345.213 548.499C345.126 548.521 345.028 548.499 344.92 548.434C344.816 548.373 344.697 548.3 344.563 548.213C344.428 548.126 344.264 548.044 344.069 547.966C343.878 547.884 343.65 547.814 343.386 547.758C343.126 547.702 342.816 547.673 342.457 547.673C341.932 547.673 341.458 547.76 341.033 547.933C340.608 548.102 340.247 548.347 339.948 548.668C339.649 548.984 339.419 549.37 339.259 549.825C339.098 550.276 339.018 550.783 339.018 551.346C339.018 551.931 339.1 552.455 339.265 552.919C339.434 553.378 339.672 553.77 339.98 554.095C340.292 554.416 340.669 554.661 341.111 554.83C341.553 554.999 342.049 555.083 342.6 555.083C343.033 555.083 343.416 555.036 343.75 554.94C344.088 554.841 344.417 554.704 344.738 554.531V552.483H343.289C343.206 552.483 343.139 552.46 343.087 552.412C343.039 552.364 343.016 552.306 343.016 552.236V551.521H345.876Z" fill="#F3D2D2"/>
<path d="M40 368.5H366" stroke="#F3D2D2" stroke-width="10" stroke-dasharray="1 4"/>
</svg>
